<?xml version="1.0" standalone="no"?>
<!DOCTYPE svg PUBLIC "-//W3C//DTD SVG 20010904//EN"
 "http://www.w3.org/TR/2001/REC-SVG-20010904/DTD/svg10.dtd">
<svg version="1.0" xmlns="http://www.w3.org/2000/svg"
 width="1838.000000pt" height="1079.000000pt" viewBox="0 0 1838.000000 1079.000000"
 preserveAspectRatio="xMidYMid meet">
<metadata>
Created by potrace 1.15, written by Peter Selinger 2001-2017
</metadata>
<g transform="translate(0.000000,1079.000000) scale(0.100000,-0.100000)"
fill="#000000" stroke="none">
<path d="M0 5395 l0 -5395 9190 0 9190 0 0 5395 0 5395 -9190 0 -9190 0 0
-5395z m2068 5123 c2 -18 -4 -30 -24 -42 -18 -12 -23 -21 -16 -28 7 -7 21 -2
45 16 41 31 54 33 62 5 4 -13 0 -28 -11 -41 -18 -18 -18 -20 -1 -29 21 -12 22
-57 2 -79 -14 -15 -14 -18 0 -30 15 -13 20 -42 9 -53 -3 -3 -26 4 -50 15 -40
20 -45 20 -61 6 -28 -24 -57 -30 -78 -14 -16 12 -17 16 -6 30 7 9 23 16 35 16
19 1 18 2 -6 16 -32 17 -38 57 -13 84 14 15 14 18 0 30 -31 25 -18 57 37 95
59 39 72 40 76 3z m7287 -359 c11 -17 -2 -21 -25 -7 -18 11 -23 11 -36 -6 -8
-11 -14 -23 -14 -27 0 -13 32 -40 43 -36 19 6 19 25 0 30 -10 3 -4 5 14 6 17
0 33 -5 36 -11 2 -7 9 4 16 25 16 47 36 47 53 0 l13 -36 5 33 c8 53 30 50 30
-4 0 -42 2 -46 25 -46 23 0 25 4 25 45 0 33 4 45 15 45 11 0 15 -12 15 -44 0
-38 3 -45 23 -49 12 -2 -18 -5 -66 -6 -70 -1 -89 2 -93 14 -8 20 -30 19 -38
-1 -4 -12 -19 -14 -63 -12 -52 3 -58 5 -67 30 -8 22 -6 32 9 48 19 21 69 27
80 9z m-8985 -94 c12 -14 15 -14 30 0 37 33 100 6 100 -44 0 -19 3 -22 12 -13
29 29 88 -1 88 -43 0 -13 -7 -28 -15 -35 -13 -11 -10 -15 17 -29 38 -19 49
-59 23 -85 -23 -23 -200 -24 -192 -1 4 8 2 17 -2 20 -5 3 -17 40 -26 82 -19
84 -28 83 -40 -4 -4 -29 -11 -55 -16 -59 -5 -3 -9 -16 -9 -30 0 -24 -1 -24
-88 -24 -75 0 -92 3 -106 19 -25 28 -17 63 20 82 28 14 30 17 18 34 -19 26
-18 41 7 66 16 16 29 20 50 15 20 -4 29 -1 29 7 0 7 7 23 16 35 18 26 65 30
84 7z m1120 -240 l0 -165 -45 0 -45 0 0 165 0 165 45 0 45 0 0 -165z m361 150
c52 -27 61 -98 17 -129 -20 -14 -20 -15 5 -31 39 -25 52 -66 32 -104 -22 -44
-48 -51 -181 -51 l-114 0 0 165 0 165 105 0 c76 0 114 -4 136 -15z m249 -114
c0 -149 -5 -141 101 -141 l69 0 0 -30 0 -30 -130 0 -130 0 0 165 0 165 45 0
45 0 0 -129z m457 117 c6 -7 16 -31 23 -53 7 -22 18 -53 26 -70 7 -16 24 -59
37 -95 13 -36 28 -73 32 -82 6 -16 1 -18 -44 -18 -46 0 -51 2 -57 25 -6 24
-10 25 -74 25 -64 0 -69 -2 -72 -22 -3 -20 -10 -23 -51 -26 -47 -3 -48 -2 -42
20 8 26 66 177 97 256 l22 52 47 0 c25 0 51 -6 56 -12z m-2235 -216 c16 -13
18 -13 23 0 8 21 138 25 157 5 10 -12 15 -12 26 0 19 18 104 14 110 -6 4 -11
-3 -13 -31 -8 -21 3 -39 1 -43 -4 -10 -16 4 -23 41 -21 19 2 35 -2 35 -7 0
-24 -91 -29 -110 -6 -10 13 -14 13 -27 0 -20 -21 -167 -19 -185 2 -10 13 -14
13 -25 -3 -11 -15 -17 -16 -32 -7 -11 7 -23 8 -32 2 -19 -12 -66 -11 -90 1
-24 13 -25 46 -1 59 27 16 164 11 184 -7z m11398 -719 c0 -5 -10 -24 -22 -43
-19 -32 -46 -81 -115 -210 -13 -25 -33 -60 -43 -77 -26 -44 -87 -191 -117
-283 -45 -140 -62 -215 -74 -330 -6 -63 -15 -125 -20 -138 -5 -13 -7 -28 -3
-33 3 -6 -4 -34 -16 -63 -11 -29 -20 -57 -19 -62 2 -5 -5 -34 -14 -64 -16 -51
-22 -192 -14 -313 3 -47 -11 -43 -30 8 -31 83 -25 380 8 401 5 3 9 20 9 38 0
17 5 37 10 42 10 10 17 50 51 269 13 82 42 191 68 255 78 190 169 371 232 462
11 15 19 30 19 33 0 11 73 115 81 115 5 0 9 -3 9 -7z m-345 -333 c-29 -57 -95
-234 -109 -295 -22 -92 -42 -206 -71 -410 -3 -16 -19 -75 -37 -130 -31 -92
-33 -110 -33 -232 0 -73 -3 -133 -7 -133 -14 0 -40 118 -41 185 0 66 15 132
48 210 25 59 45 134 45 172 1 21 7 67 16 103 8 36 19 94 24 129 10 60 33 141
60 206 37 88 105 225 112 225 5 0 1 -14 -7 -30z m-275 -786 c-25 -102 -55
-287 -54 -339 1 -22 5 -80 10 -128 8 -69 7 -90 -3 -99 -16 -13 -17 -30 -1 -46
18 -18 38 -83 38 -128 0 -52 7 -58 40 -34 30 21 60 93 60 142 0 31 3 33 30 18
11 -6 17 -17 14 -25 -4 -8 -2 -15 4 -15 15 0 24 -31 12 -45 -7 -9 -8 -15 -1
-19 6 -4 8 -13 4 -21 -5 -14 7 -20 30 -16 4 1 14 -5 22 -13 13 -12 12 -16 0
-26 -12 -10 -15 -9 -15 5 0 27 -27 0 -35 -36 -4 -16 -17 -37 -31 -48 -13 -10
-24 -23 -24 -28 0 -12 -88 -93 -154 -143 -32 -24 -45 -41 -42 -52 2 -10 0 -21
-5 -24 -5 -3 -9 -16 -9 -28 0 -13 -7 -29 -15 -36 -12 -10 -13 -15 -3 -28 11
-13 9 -15 -15 -10 -22 4 -27 2 -22 -10 8 -22 -4 -52 -21 -52 -11 0 -13 -6 -9
-20 5 -15 0 -22 -19 -30 -14 -5 -26 -14 -26 -19 0 -32 -65 -53 -98 -32 -11 7
-11 11 1 23 19 19 27 123 10 123 -14 0 -95 -136 -124 -209 -11 -27 -21 -75
-22 -107 -2 -77 35 -137 115 -186 46 -28 70 -36 130 -41 l73 -7 -2 -55 c-1
-30 -3 -82 -3 -115 -1 -33 -6 -77 -11 -98 -7 -28 -6 -50 6 -89 8 -28 15 -56
15 -62 0 -7 -42 -11 -123 -10 -67 0 -177 -4 -244 -11 -73 -7 -146 -8 -180 -3
-32 5 -68 8 -80 8 -12 0 -37 7 -56 15 -18 8 -43 11 -55 8 -23 -6 -52 16 -52
39 0 7 -7 24 -16 36 -8 12 -14 30 -12 40 1 10 -5 30 -15 45 -14 22 -22 25 -47
20 -26 -5 -30 -2 -30 15 0 12 -5 24 -10 27 -6 4 -8 15 -5 26 4 13 2 19 -9 19
-11 0 -16 9 -16 30 0 16 -6 33 -13 37 -20 12 -28 67 -13 89 7 10 19 37 26 59
7 22 19 49 26 60 8 11 14 25 14 33 0 7 10 26 22 43 18 24 22 41 20 92 l-3 62
60 60 c55 57 60 66 76 140 23 100 33 124 89 205 40 56 60 95 129 240 6 14 26
48 44 76 17 28 45 80 62 116 17 36 56 102 86 147 73 110 75 113 86 184 23 139
89 223 234 292 71 35 150 57 173 49 1 0 -7 -37 -18 -80z m488 -273 c12 -10 22
-23 22 -29 0 -5 16 -22 35 -38 19 -15 35 -34 35 -41 0 -16 -32 -17 -47 -2 -9
9 -19 6 -41 -9 -25 -18 -34 -20 -63 -10 -19 6 -40 12 -46 14 -13 3 -53 62 -53
77 0 4 11 5 25 1 20 -5 25 -2 25 12 0 15 7 12 29 -15 24 -29 29 -31 35 -16 3
10 0 28 -9 41 -11 17 -12 24 -2 27 22 10 34 7 55 -12z m-81 -847 c13 -4 21
-10 18 -14 -3 -5 3 -11 14 -15 10 -3 22 -13 25 -23 3 -9 15 -32 26 -50 11 -18
18 -38 14 -43 -3 -6 1 -18 10 -28 8 -9 17 -28 18 -42 2 -13 13 -32 26 -42 12
-10 20 -22 17 -27 -3 -4 11 -20 30 -36 25 -19 32 -31 25 -39 -7 -9 -6 -16 4
-24 8 -6 12 -20 9 -30 -3 -10 8 -30 26 -50 17 -18 29 -37 26 -41 -3 -5 13 -21
35 -37 39 -28 50 -43 30 -43 -20 0 -9 -27 15 -38 14 -6 25 -18 25 -27 0 -13
-3 -13 -20 -3 -11 7 -20 16 -20 20 0 11 -80 48 -102 48 -19 0 -27 12 -32 46
-2 10 -8 20 -15 22 -15 5 -5 -43 16 -76 13 -21 12 -25 -9 -42 -25 -21 -43 -26
-33 -10 3 6 -2 10 -12 10 -28 0 -51 34 -51 75 0 29 -7 43 -28 62 -16 14 -29
28 -29 31 -1 4 -6 17 -13 29 -9 16 -9 22 0 25 8 3 8 9 0 25 -7 12 -10 34 -7
50 6 33 -17 68 -40 60 -8 -4 -15 -2 -15 2 0 5 8 12 17 15 14 6 12 12 -17 36
-19 17 -29 30 -21 30 7 0 11 6 8 14 -3 8 -1 17 6 20 7 2 2 5 -10 5 -28 1 -31
21 -3 21 10 0 28 -10 40 -22 l20 -22 0 21 c0 12 -11 30 -25 41 -13 11 -22 22
-18 26 11 11 -44 57 -61 50 -12 -5 -15 -2 -10 10 3 9 15 16 25 16 10 0 19 5
19 10 0 11 15 12 47 4z m770 -242 c-13 -3 -16 -9 -11 -25 10 -33 15 -34 31 -9
20 29 45 29 41 1 -2 -16 -15 -25 -45 -34 -24 -7 -43 -10 -43 -6 0 3 -15 -10
-33 -30 -22 -25 -43 -38 -71 -42 -22 -4 -42 -11 -45 -16 -6 -8 -79 -30 -105
-31 -4 0 -6 7 -2 15 6 16 -3 19 -28 9 -9 -3 -13 -11 -9 -17 4 -7 0 -8 -13 -2
-24 10 -42 10 -75 1 -19 -6 -26 -4 -26 8 0 8 14 17 34 21 33 6 42 18 23 30 -5
3 -10 11 -10 17 0 7 4 7 13 0 6 -5 41 -9 76 -8 54 2 67 6 79 24 8 12 23 22 33
22 10 0 26 11 35 25 9 14 24 25 34 25 10 0 37 9 60 19 24 11 50 16 59 13 14
-6 14 -7 -2 -10z m-7555 -496 c24 -18 39 -63 32 -92 -12 -46 -49 -64 -130 -64
l-74 0 0 -70 c0 -40 -4 -70 -10 -70 -6 0 -10 58 -10 155 l0 155 88 0 c55 -1
93 -5 104 -14z m498 10 c0 -3 27 -73 59 -156 33 -83 55 -150 49 -148 -6 2 -19
24 -28 48 l-18 45 -74 3 -74 3 -21 -51 c-12 -27 -26 -50 -31 -50 -6 0 18 70
51 155 34 85 68 155 75 155 6 0 12 -2 12 -4z m569 -126 c51 -71 97 -132 102
-135 5 -4 9 49 9 129 0 84 4 136 10 136 6 0 10 -58 10 -155 0 -117 -3 -155
-12 -155 -7 0 -56 61 -108 135 -52 74 -98 135 -102 135 -5 0 -8 -61 -8 -135 0
-83 -4 -135 -10 -135 -6 0 -10 43 -10 109 0 116 8 201 20 201 4 0 48 -58 99
-130z m2222 107 c85 -56 92 -185 15 -256 -20 -19 -40 -26 -84 -28 -68 -5 -111
17 -138 69 -23 43 -23 123 0 166 37 71 139 95 207 49z m-251 -1737 l0 -50
-1630 0 -1630 0 0 50 0 50 1630 0 1630 0 0 -50z m8642 -240 c15 -23 28 -26 28
-6 0 16 21 26 56 26 45 0 55 -82 12 -96 -28 -8 -68 4 -68 21 0 8 -4 15 -10 15
-5 0 -10 -6 -10 -14 0 -15 -21 -26 -51 -26 -12 0 -19 -7 -19 -20 0 -11 -7 -20
-15 -20 -12 0 -15 13 -15 60 0 33 -4 60 -10 60 -13 0 -30 -34 -30 -59 0 -12
-4 -21 -10 -21 -5 0 -10 23 -10 50 l0 50 70 0 c59 0 72 -3 82 -20z m-1198
-1032 c36 -51 7 -108 -54 -108 -29 0 -43 6 -54 22 -36 51 -7 108 54 108 29 0
43 -6 54 -22z m-404 -218 l0 -30 -305 0 -305 0 0 30 0 30 305 0 305 0 0 -30z"/>
<path d="M4550 5995 l0 -77 75 4 c87 4 109 19 109 73 0 54 -22 69 -109 73
l-75 4 0 -77z"/>
<path d="M7883 6055 c-100 -43 -97 -219 4 -261 100 -42 203 55 174 164 -14 52
-38 82 -77 98 -41 17 -60 17 -101 -1z"/>
</g>
</svg>
